<?xml version="1.0" standalone="no"?>
<!DOCTYPE svg PUBLIC "-//W3C//DTD SVG 20010904//EN"
 "http://www.w3.org/TR/2001/REC-SVG-20010904/DTD/svg10.dtd">
<svg version="1.0" xmlns="http://www.w3.org/2000/svg"
 width="960.000000pt" height="960.000000pt" viewBox="0 0 960.000000 960.000000"
 preserveAspectRatio="xMidYMid meet">
<metadata>
Created by potrace 1.11, written by Peter Selinger 2001-2013
</metadata>
<g transform="translate(0.000000,960.000000) scale(0.100000,-0.100000)"
fill="#000000" stroke="none">
<path d="M4750 8762 c-52 -26 -113 -59 -135 -74 -434 -279 -695 -848 -746
-1622 -16 -241 0 -751 27 -876 4 -19 -16 -3 -88 68 -149 147 -335 278 -514
362 -105 49 -317 116 -434 136 -158 28 -428 26 -575 -4 -510 -106 -884 -426
-1019 -872 -73 -242 -73 -506 -2 -789 94 -370 333 -794 669 -1186 95 -110 337
-365 347 -365 4 0 13 33 20 73 39 248 110 510 187 697 146 354 366 550 619
550 307 0 684 -310 878 -721 83 -175 115 -304 116 -461 l0 -88 84 0 c57 0 87
4 93 13 15 23 7 239 -11 317 -67 282 -219 545 -446 770 -165 165 -351 279
-535 331 -114 32 -271 32 -375 0 -324 -98 -553 -419 -696 -970 -19 -74 -36
-136 -38 -138 -2 -3 -37 33 -77 79 -40 46 -78 88 -83 95 -33 36 -205 275 -262
364 -86 135 -213 396 -258 529 -19 58 -47 164 -61 235 -25 119 -26 144 -22
305 4 135 10 193 26 255 105 390 388 662 802 770 88 23 131 28 281 32 276 8
468 -33 713 -151 335 -162 577 -389 820 -766 47 -74 91 -139 97 -145 11 -11
11 -13 -17 220 -61 491 -84 927 -66 1263 7 125 18 272 26 327 13 99 12 120 -5
110 -11 -7 -23 31 -15 45 4 6 14 8 23 6 15 -5 23 18 54 147 67 273 164 477
315 659 73 89 148 156 283 256 l94 71 66 -52 c184 -144 292 -264 388 -430 62
-108 125 -266 154 -388 l22 -87 94 -6 c52 -4 96 -5 100 -2 10 11 -57 247 -104
364 -138 349 -342 591 -635 751 -42 22 -78 41 -80 41 -2 0 -47 -22 -99 -48z
m-741 -1131 c16 -10 6 -31 -14 -31 -17 0 -28 17 -20 30 8 12 16 12 34 1z
m-2104 -3611 c3 -5 -1 -10 -9 -10 -9 0 -16 5 -16 10 0 6 4 10 9 10 6 0 13 -4
16 -10z"/>
<path d="M6710 7964 c-560 -88 -852 -209 -1023 -424 -103 -128 -162 -280 -213
-550 l-27 -137 -74 -84 c-130 -147 -229 -314 -292 -493 -58 -164 -66 -215 -65
-406 0 -169 1 -178 31 -265 51 -150 127 -260 237 -347 l50 -40 23 47 c13 25
37 83 54 128 37 99 90 200 173 327 293 446 693 736 1156 836 69 15 126 19 300
18 198 0 223 -3 311 -26 392 -106 659 -339 782 -685 65 -180 77 -429 32 -652
-80 -392 -303 -803 -663 -1219 l-81 -92 -11 57 c-7 32 -27 110 -46 173 -123
426 -304 705 -544 838 -301 167 -698 61 -1040 -278 -281 -278 -461 -644 -464
-940 -1 -58 3 -117 7 -132 7 -28 8 -28 96 -28 l88 0 -5 78 c-22 387 330 934
722 1121 334 160 613 43 825 -344 97 -177 190 -477 242 -780 11 -66 22 -122
25 -124 7 -7 119 106 248 249 697 772 962 1513 759 2119 -63 191 -149 328
-292 471 -436 434 -1154 523 -1762 220 -108 -54 -269 -155 -269 -169 0 -5 -15
-15 -32 -22 -48 -20 -304 -278 -392 -397 -105 -140 -205 -295 -252 -391 -21
-44 -43 -80 -47 -80 -15 -2 -67 125 -83 200 -20 93 -13 263 15 364 59 215 178
417 345 586 l82 84 18 133 c61 455 198 631 595 762 123 41 298 82 446 106 139
22 129 13 121 108 -4 44 -10 84 -14 87 -4 3 -45 0 -92 -7z"/>
<path d="M4710 4055 l0 -595 90 0 90 0 0 595 0 595 -90 0 -90 0 0 -595z"/>
<path d="M3470 3320 l0 -90 595 0 596 0 -3 88 -3 87 -592 3 -593 2 0 -90z"/>
<path d="M4940 3320 l0 -90 595 0 595 0 0 90 0 90 -595 0 -595 0 0 -90z"/>
<path d="M4710 2585 l0 -595 90 0 90 0 -2 593 -3 592 -87 3 -88 3 0 -596z"/>
<path d="M4041 2973 c-32 -84 -123 -214 -194 -277 -217 -194 -488 -206 -734
-33 -45 32 -193 97 -220 97 -29 0 111 -337 188 -457 95 -146 244 -285 374
-350 164 -83 291 -109 495 -100 l139 5 6 -41 c10 -67 37 -157 46 -157 5 0 6
-6 3 -14 -7 -17 40 -132 92 -226 98 -178 195 -306 338 -444 76 -74 212 -186
226 -186 28 0 224 182 329 305 181 213 324 498 348 696 3 26 8 51 12 57 4 7
35 7 91 1 95 -9 243 3 330 27 321 91 558 350 691 755 22 67 38 125 37 130 -5
13 -161 -56 -224 -98 -140 -95 -243 -128 -369 -120 -93 6 -162 30 -243 86
-112 77 -203 190 -263 326 l-33 75 -89 0 -89 0 7 -27 c28 -115 134 -304 227
-404 104 -111 248 -199 378 -230 71 -17 220 -15 290 4 30 9 56 14 57 13 8 -8
-78 -114 -140 -172 -88 -83 -185 -135 -306 -165 -120 -30 -318 -23 -440 15
-47 14 -85 26 -86 26 -2 0 -2 -53 -2 -117 -1 -127 -15 -210 -60 -328 -71 -190
-215 -409 -390 -593 l-59 -62 -41 37 c-92 85 -251 279 -328 398 -124 194 -184
396 -171 578 4 56 3 87 -3 87 -6 0 -28 -6 -48 -14 -122 -47 -352 -61 -494 -31
-155 33 -304 127 -419 264 -66 80 -73 96 -34 81 14 -6 64 -17 112 -25 150 -26
303 6 456 96 99 59 247 210 309 317 39 65 107 224 107 247 0 3 -42 5 -94 5
l-93 0 -22 -57z m869 -2027 c0 -18 -17 8 -24 34 l-7 25 15 -25 c9 -14 15 -29
16 -34z"/>
</g>
</svg>
